<?xml version="1.0" encoding="UTF-8" standalone="no"?><!--
  - Project intellij-jasper-report-support
  -
  - Copyright 2023-2023 Alessandro 'kLeZ' Accardo
  - Previous copyright (c) 2017-2023 Chathura Buddhika
  -
  - Permission is hereby granted, free of charge, to any person obtaining a copy
  - of this software and associated documentation files (the "Software"), to deal
  - in the Software without restriction, including without limitation the rights
  - to use, copy, modify, merge, publish, distribute, sublicense, and/or sell
  - copies of the Software, and to permit persons to whom the Software is
  - furnished to do so, subject to the following conditions:
  -
  - The above copyright notice and this permission notice shall be included in all
  - copies or substantial portions of the Software.
  -
  - THE SOFTWARE IS PROVIDED "AS IS", WITHOUT WARRANTY OF ANY KIND, EXPRESS OR
  - IMPLIED, INCLUDING BUT NOT LIMITED TO THE WARRANTIES OF MERCHANTABILITY,
  - FITNESS FOR A PARTICULAR PURPOSE AND NONINFRINGEMENT. IN NO EVENT SHALL THE
  - AUTHORS OR COPYRIGHT HOLDERS BE LIABLE FOR ANY CLAIM, DAMAGES OR OTHER
  - LIABILITY, WHETHER IN AN ACTION OF CONTRACT, TORT OR OTHERWISE, ARISING FROM,
  - OUT OF OR IN CONNECTION WITH THE SOFTWARE OR THE USE OR OTHER DEALINGS IN THE
  - SOFTWARE.
  -
  -->
<svg width="683pt" height="683pt" viewBox="0 0 683.00001 682.99999" preserveAspectRatio="xMidYMid" xmlns="http://www.w3.org/2000/svg">
	<g fill="#000000" stroke="none" id="g1" transform="scale(3.6610206,3.6608959)">
		<path d="M 0.81349,186.036 0.104573,185.462 0.0193635,94.301 C -0.0274965,44.1624 0.0136635,2.69513 0.110803,2.15141 0.207963,1.60769 0.549085,0.901191 0.868863,0.581415 1.44218,0.008099 2.72222,0 92.7645,0 c 65.8985,0 91.5785,0.09198 92.2625,0.330501 0.521,0.181777 1.08,0.576643 1.241,0.877479 0.189,0.35338 0.292,33.03192 0.292,92.32772 v 91.7803 l -0.629,0.57 c -0.616,0.557 -2.634,0.571 -92.5191,0.647 C 3.19125,186.608 1.50953,186.6 0.813483,186.036 Z M 64.5492,169.98 v -5.56 l 1.517,1.364 c 1.6767,1.508 2.7062,1.828 5.2121,1.62 3.0172,-0.25 5.676,-2.692 6.7648,-6.214 0.5147,-1.664 0.6856,-8.141 0.2705,-10.251 -0.9653,-4.906 -3.8081,-7.686 -7.8678,-7.693 -2.1365,-0.004 -3.5834,0.578 -4.8913,1.965 l -1.0053,1.066 v -1.218 -1.217 h -3.14 -3.14 v 15.849 15.85 h 3.14 3.14 z m 2.8165,-7.876 c -0.9256,-0.391 -2.1538,-1.982 -2.5043,-3.245 -0.4006,-1.442 -0.3976,-5.876 0.0056,-7.325 0.4044,-1.456 1.8642,-3.113 2.954,-3.352 1.2175,-0.268 2.806,0.494 3.5534,1.703 1.9336,3.129 1.3649,10.232 -0.9401,11.743 -0.8975,0.588 -2.2915,0.804 -3.0678,0.476 z m -16.7222,4.411 2.0933,-0.719 0.086,-2.753 c 0.0473,-1.515 0.03,-2.754 -0.0386,-2.754 -0.0685,0 -0.8705,0.342 -1.7821,0.759 -3.711,1.699 -7.9443,1.977 -10.4708,0.688 -1.1895,-0.606 -2.2783,-2.395 -2.2917,-3.764 l -0.0069,-0.673 h 7.7753 7.7752 v -1.845 c 0,-6.059 -2.5089,-10.294 -6.947,-11.728 -1.8903,-0.61 -5.6257,-0.624 -7.6325,-0.028 -0.8415,0.25 -2.2045,0.987 -3.0289,1.639 -2.5174,1.99 -3.8417,4.834 -4.1321,8.876 -0.4799,6.676 2.3003,11.342 7.6642,12.863 2.2428,0.636 8.3623,0.322 10.9363,-0.562 z M 38.4126,151.991 c 0.5836,-2.514 2.1312,-3.803 4.5665,-3.803 2.5649,0 4.0444,1.185 4.4277,3.547 l 0.175,1.078 h -4.6801 -4.68 z m 58.0314,15.03 c 4.14,-1.23 6.819,-5.129 7.184,-10.457 0.524,-7.659 -3.338,-12.886 -9.7961,-13.26 -2.9105,-0.169 -4.7458,0.265 -6.7776,1.602 -3.036,1.999 -4.6601,5.64 -4.6601,10.449 0,5.926 2.6531,10.297 7.0944,11.687 1.6838,0.527 5.1444,0.516 6.9554,-0.021 z m -4.9746,-4.853 c -2.111,-1.082 -3.2198,-4.131 -2.8982,-7.971 0.3138,-3.747 2.0386,-6.045 4.497,-5.992 1.6606,0.036 2.6987,0.759 3.5391,2.465 0.5911,1.2 0.6875,1.857 0.6875,4.685 0,2.828 -0.0964,3.485 -0.6875,4.685 -1.1238,2.281 -3.1784,3.132 -5.1379,2.128 z m 82.2316,4.481 c 2.595,-1.175 3.888,-3.29 3.888,-6.36 0,-2.936 -1.228,-5.06 -3.643,-6.303 -0.606,-0.311 -2.387,-0.9 -3.959,-1.309 -3.572,-0.928 -4.595,-1.447 -4.849,-2.463 -0.395,-1.57 2.351,-2.802 5.185,-2.327 1.612,0.271 4.835,1.332 5.037,1.66 0.527,0.851 0.748,0.027 0.67,-2.491 l -0.086,-2.766 -1.495,-0.421 c -2.071,-0.584 -9.212,-0.62 -10.616,-0.054 -3.48,1.401 -5.137,4.344 -4.461,7.925 0.56,2.969 2.523,4.482 7.364,5.675 3.885,0.958 4.766,1.41 5.023,2.582 0.674,3.071 -4.512,3.839 -10.094,1.496 l -2.019,-0.847 v 2.67 c 0,2.637 0.01,2.674 0.822,2.984 3.412,1.304 10.7,1.496 13.233,0.349 z M 14.0103,160.887 v -5.981 h 0.8525 c 1.4009,0 2.6562,0.586 3.4139,1.593 0.3925,0.522 1.7377,3.069 2.9893,5.659 l 2.2755,4.71 h 3.3087 c 1.8197,0 3.3086,-0.074 3.3086,-0.164 0,-0.09 -1.4153,-2.975 -3.1451,-6.411 -1.9124,-3.798 -3.4653,-6.51 -3.9623,-6.919 l -0.8173,-0.672 1.7794,-0.918 c 1.506,-0.777 1.9122,-1.17 2.6438,-2.561 0.8127,-1.545 0.8572,-1.813 0.7447,-4.484 -0.1313,-3.119 -0.6717,-4.581 -2.2249,-6.022 -2.079,-1.928 -4.1722,-2.352 -11.6301,-2.352 H 7.73027 v 15.252 15.251 h 3.14003 3.14 z m 0,-15.251 v -4.187 l 1.5699,0.006 c 2.2754,0.01 3.7993,0.442 4.6824,1.325 0.6857,0.685 0.7753,1.015 0.7753,2.855 0,1.839 -0.0896,2.169 -0.7753,2.855 -0.8831,0.883 -2.407,1.314 -4.6824,1.324 l -1.5699,0.006 z m 103.5277,14.13 c 0.091,-5.695 0.209,-7.317 0.594,-8.185 1.348,-3.033 6.075,-4.101 9.677,-2.186 l 1.334,0.71 v -2.825 -2.825 l -0.972,-0.507 c -0.556,-0.29 -1.937,-0.564 -3.227,-0.64 -2.767,-0.165 -4.81,0.589 -6.414,2.364 l -1.05,1.162 v -1.496 -1.496 h -2.99 -2.99 v 11.513 11.513 h 2.962 2.963 z m 35.23,4.892 v -2.209 l -3.286,-0.113 c -4.817,-0.165 -4.611,0.17 -4.744,-7.737 l -0.105,-6.272 h 4.068 4.067 v -2.243 -2.242 h -4.037 -4.037 v -3.29 -3.289 h -2.991 -2.99 v 3.289 3.29 h -2.991 -2.99 v 2.242 2.243 h 2.99 2.991 v 6.525 c 0,8.416 0.363,9.769 2.99,11.134 1.307,0.678 2.439,0.82 6.804,0.852 l 4.261,0.03 z m -50.539,-43.721 v -5.56 l 1.517,1.364 c 1.677,1.507 2.706,1.827 5.212,1.619 3.017,-0.25 5.676,-2.692 6.765,-6.213 0.515,-1.665 0.686,-8.141 0.27,-10.252 -0.965,-4.9059 -3.808,-7.6854 -7.867,-7.6923 -2.137,-0.004 -3.584,0.5774 -4.892,1.9642 l -1.005,1.0659 v -1.2174 -1.2175 h -3.1399 -3.14 v 15.8491 15.85 h 3.14 3.1399 z m 2.817,-7.877 c -0.926,-0.391 -2.154,-1.982 -2.505,-3.244 -0.4,-1.443 -0.397,-5.877 0.004,-7.326 0.405,-1.456 1.864,-3.1125 2.954,-3.3519 1.218,-0.2674 2.806,0.4941 3.554,1.7039 1.933,3.128 1.365,10.232 -0.94,11.742 -0.898,0.588 -2.292,0.805 -3.068,0.476 z m -71.4482,4.512 c 1.9474,-0.881 2.9381,-1.86 3.7912,-3.745 0.6858,-1.516 0.6957,-1.691 0.7845,-14.0201 l 0.0899,-12.4852 h -6.7438 -6.7437 v 2.6914 2.6915 h 3.5886 3.5885 l -0.0042,8.7474 c -0.0042,9.39 -0.0449,9.666 -1.5698,10.798 -0.6446,0.479 -1.2704,0.612 -2.841,0.607 -2.2234,-0.007 -4.2274,-0.725 -6.0514,-2.168 -1.8809,-1.487 -1.7943,-1.592 -1.7943,2.176 v 3.449 l 0.8699,0.45 c 3.414,1.765 10.0148,2.174 13.0358,0.808 z m 22.0101,0.509 c 0.5591,-0.188 1.6558,-0.793 2.437,-1.345 l 1.4205,-1.004 v 1.046 1.046 h 2.9905 2.9904 v -7.57 c 0,-4.191 -0.1456,-8.359 -0.3262,-9.336 -0.8959,-4.8462 -3.6689,-6.7182 -9.9515,-6.7182 -2.7162,0 -6.5372,0.6134 -7.7398,1.2425 -0.4365,0.2283 -0.5234,0.6995 -0.5234,2.8371 0,2.3256 0.0485,2.5426 0.5234,2.3436 2.3793,-0.9991 3.6773,-1.386 5.5337,-1.6493 4.0331,-0.572 5.9853,0.2253 6.3524,2.5943 l 0.1919,1.238 -4.4317,0.137 c -5.1189,0.158 -6.7325,0.609 -8.5225,2.385 -1.4572,1.445 -2.1877,3.82 -1.9308,6.278 0.3463,3.313 2.1906,5.6 5.2721,6.537 1.1645,0.354 4.586,0.317 5.714,-0.062 z m -2.7174,-4.369 c -2.3648,-1.186 -2.4302,-4.468 -0.1159,-5.82 0.6345,-0.371 1.8429,-0.605 3.7723,-0.732 l 2.8388,-0.186 -0.134,1.612 c -0.2012,2.42 -1.1736,4.165 -2.7735,4.977 -1.5955,0.81 -2.2194,0.835 -3.5878,0.149 z m 32.891,3.893 c 2.5948,-1.175 3.8876,-3.29 3.8876,-6.36 0,-2.936 -1.2277,-5.06 -3.6429,-6.303 -0.6056,-0.311 -2.3872,-0.9 -3.9591,-1.309 -3.5718,-0.928 -4.5945,-1.447 -4.8494,-2.462 -0.3941,-1.5706 2.3514,-2.8028 5.1854,-2.3275 1.6121,0.2704 4.8353,1.3325 5.0376,1.6595 0.5264,0.852 0.7479,0.028 0.6697,-2.4904 l -0.086,-2.7662 -1.4953,-0.4212 c -2.0708,-0.5835 -9.2117,-0.62 -10.6161,-0.0542 -3.4802,1.4018 -5.1367,4.3448 -4.461,7.925 0.5603,2.969 2.5234,4.482 7.3643,5.675 3.885,0.958 4.7656,1.411 5.0229,2.582 0.6745,3.071 -4.5116,3.84 -10.0943,1.497 l -2.0186,-0.847 v 2.669 c 0,2.637 0.0097,2.674 0.8224,2.985 3.4117,1.303 10.6996,1.496 13.2328,0.348 z m 52.7815,-0.134 2.094,-0.719 0.086,-2.753 c 0.047,-1.515 0.03,-2.754 -0.039,-2.754 -0.069,0 -0.87,0.342 -1.782,0.759 -3.711,1.699 -7.944,1.978 -10.471,0.689 -1.189,-0.607 -2.278,-2.396 -2.292,-3.765 l -0.006,-0.673 h 7.776 7.775 v -1.845 c 0,-6.059 -2.509,-10.294 -6.947,-11.7274 -1.89,-0.6105 -5.626,-0.6244 -7.633,-0.0285 -0.841,0.2499 -2.204,0.9875 -3.028,1.6392 -2.518,1.9899 -3.842,4.8347 -4.133,8.8757 -0.479,6.677 2.301,11.343 7.665,12.864 2.242,0.636 8.362,0.321 10.936,-0.562 z m -12.231,-14.524 c 0.584,-2.514 2.132,-3.803 4.567,-3.803 2.565,0 4.044,1.185 4.428,3.547 l 0.175,1.078 h -4.68 -4.681 z m 28.886,7.775 c 0.091,-5.695 0.209,-7.317 0.594,-8.184 1.348,-3.0335 6.075,-4.1015 9.677,-2.187 l 1.334,0.71 v -2.8248 -2.8249 l -0.972,-0.5067 c -0.556,-0.2899 -1.937,-0.5641 -3.227,-0.6406 -2.767,-0.1642 -4.81,0.589 -6.414,2.3648 l -1.05,1.1612 v -1.496 -1.4961 h -2.99 -2.991 v 11.5131 11.513 h 2.963 2.963 z M 54.0825,68.1827 V 64.8932 H 35.3921 16.7017 v 3.2895 3.2895 h 18.6904 18.6904 z m 10.3787,-9.0913 c 3.0296,-0.9605 5.5286,-3.7002 6.3987,-7.0151 0.2555,-0.9735 0.3997,-6.0084 0.483,-16.8635 l 0.1187,-15.4757 h -8.6895 -8.6895 v 3.439 3.4391 h 4.6352 4.6352 l -0.0069,11.1395 c -0.0056,10.2855 -0.05,11.2351 -0.573,12.3871 -0.6808,1.4994 -1.4676,2.0595 -3.5068,2.4969 -3.0083,0.6452 -7.3543,-0.7801 -10.1021,-3.3129 -0.7036,-0.6486 -1.3687,-1.1792 -1.4779,-1.1792 -0.1093,0 -0.1615,2.0516 -0.1161,4.5592 l 0.0825,4.5591 1.7596,0.6979 c 3.7993,1.5067 5.7597,1.8554 9.7537,1.7349 2.3499,-0.071 4.3162,-0.296 5.2949,-0.6063 z M 40.6254,55.4732 v -3.439 H 36.5883 32.5512 V 39.3247 26.6152 h 4.0371 4.0371 v -3.4391 -3.439 H 28.8131 17.0007 v 3.439 3.4391 h 3.8876 3.8876 v 12.7095 12.7095 h -3.8876 -3.8876 v 3.439 3.439 h 11.8124 11.8123 z" />
	</g>
</svg>
