<?xml version="1.0" encoding="UTF-8" standalone="no"?><!--
  - Project intellij-jasper-report-support
  -
  - Copyright 2023-2023 Alessandro 'kLeZ' Accardo
  - Previous copyright (c) 2017-2023 Chathura Buddhika
  -
  - Permission is hereby granted, free of charge, to any person obtaining a copy
  - of this software and associated documentation files (the "Software"), to deal
  - in the Software without restriction, including without limitation the rights
  - to use, copy, modify, merge, publish, distribute, sublicense, and/or sell
  - copies of the Software, and to permit persons to whom the Software is
  - furnished to do so, subject to the following conditions:
  -
  - The above copyright notice and this permission notice shall be included in all
  - copies or substantial portions of the Software.
  -
  - THE SOFTWARE IS PROVIDED "AS IS", WITHOUT WARRANTY OF ANY KIND, EXPRESS OR
  - IMPLIED, INCLUDING BUT NOT LIMITED TO THE WARRANTIES OF MERCHANTABILITY,
  - FITNESS FOR A PARTICULAR PURPOSE AND NONINFRINGEMENT. IN NO EVENT SHALL THE
  - AUTHORS OR COPYRIGHT HOLDERS BE LIABLE FOR ANY CLAIM, DAMAGES OR OTHER
  - LIABILITY, WHETHER IN AN ACTION OF CONTRACT, TORT OR OTHERWISE, ARISING FROM,
  - OUT OF OR IN CONNECTION WITH THE SOFTWARE OR THE USE OR OTHER DEALINGS IN THE
  - SOFTWARE.
  -
  -->

<!-- Created with Inkscape (http://www.inkscape.org/) -->
<svg xmlns:inkscape="http://www.inkscape.org/namespaces/inkscape"
     xmlns:sodipodi="http://sodipodi.sourceforge.net/DTD/sodipodi-0.dtd" width="210mm"
     height="297mm"
     viewBox="0 0 210 297"
     version="1.1"
     id="svg1"
     xml:space="preserve"
     inkscape:version="1.3 (0e150ed6c4, 2023-07-21)"
     sodipodi:docname="pluginIcon.svg"
     xmlns="http://www.w3.org/2000/svg"><sodipodi:namedview
     id="namedview1"
     pagecolor="#505050"
     bordercolor="#ffffff"
     borderopacity="1"
     inkscape:showpageshadow="0"
     inkscape:pageopacity="0"
     inkscape:pagecheckerboard="1"
     inkscape:deskcolor="#d1d1d1"
     inkscape:document-units="mm"
     inkscape:zoom="0.7483165"
     inkscape:cx="396.89089"
     inkscape:cy="561.25984"
     inkscape:window-width="1920"
     inkscape:window-height="1017"
     inkscape:window-x="0"
     inkscape:window-y="34"
     inkscape:window-maximized="1"
     inkscape:current-layer="layer1" />
	<defs id="defs1" />
	<g inkscape:label="Livello 1" inkscape:groupmode="layer" id="layer1"><path
       style="fill:#000000"
       d="m 33.830656,119.02127 v -9.66389 l 9.591146,0.0694 9.591145,0.0695 v 9.525 9.525 l -9.591145,0.0695 -9.591146,0.0694 z m 8.995833,6.61458 v -0.66146 h -3.571875 -3.571875 v 0.66146 0.66146 h 3.571875 3.571875 z m -1.768543,-9.16773 c 0.874276,-0.46019 0.966352,-0.72621 0.970742,-2.80466 0.0037,-1.74319 -0.04424,-1.91823 -0.525116,-1.91823 -0.468435,0 -0.529166,0.17639 -0.529166,1.53693 0,1.81084 -0.490194,2.74854 -1.150404,2.20061 -0.227654,-0.18893 -0.538194,-0.26671 -0.690089,-0.17283 -0.475397,0.29381 -0.302074,0.93984 0.319139,1.18954 0.804151,0.32323 0.936121,0.32065 1.604894,-0.0314 z m -2.993957,-0.32896 c 0,-0.20271 -0.178594,-0.4371 -0.396875,-0.52086 -0.278431,-0.10685 -0.396875,-0.54114 -0.396875,-1.45521 0,-0.91407 0.118444,-1.34837 0.396875,-1.45521 0.918414,-0.35243 0.415257,-0.96265 -0.79375,-0.96265 -1.014236,0 -1.190625,0.0784 -1.190625,0.52916 0,0.29105 0.119063,0.52917 0.264583,0.52917 0.145521,0 0.264584,0.65484 0.264584,1.45521 0,0.80036 -0.119063,1.45521 -0.264584,1.45521 -0.14552,0 -0.264583,0.17859 -0.264583,0.39687 0,0.29398 0.308681,0.39688 1.190625,0.39688 0.841302,0 1.190625,-0.10814 1.190625,-0.36857 z m 46.566667,4.6019 v -6.08542 h 0.630599 c 0.424653,0 0.679661,0.18761 0.780821,0.57445 l 0.150221,0.57444 0.492769,-0.60854 c 0.895052,-1.10534 3.008221,-1.08688 4.131191,0.0361 1.592918,1.59292 1.609141,6.03659 0.02781,7.61792 -0.8686,0.8686 -3.18766,0.96273 -4.068967,0.16516 l -0.556944,-0.50403 v 2.15767 2.15768 h -0.79375 -0.79375 z m 4.618354,1.68773 c 1.792818,-0.68797 1.57405,-6.41225 -0.262677,-6.87324 -1.76785,-0.44371 -2.768177,0.81794 -2.768177,3.49131 0,2.86711 1.1189,4.11562 3.030854,3.38193 z m 44.32956,-1.68773 v -6.08542 h 0.6306 c 0.42465,0 0.67966,0.18761 0.78082,0.57445 l 0.15022,0.57444 0.49277,-0.60854 c 0.89505,-1.10534 3.00822,-1.08688 4.13119,0.0361 1.59292,1.59292 1.60914,6.03659 0.0278,7.61792 -0.8686,0.8686 -3.18766,0.96273 -4.06897,0.16516 l -0.55694,-0.50403 v 2.15767 2.15768 h -0.79375 -0.79375 z m 4.61835,1.68773 c 1.79282,-0.68797 1.57405,-6.41225 -0.26268,-6.87324 -1.76785,-0.44371 -2.76817,0.81794 -2.76817,3.49131 0,2.86711 1.1189,4.11562 3.03085,3.38193 z m -77.775639,0.97027 c -1.407754,-0.58229 -2.375901,-2.49148 -1.396482,-2.75388 0.883552,-0.23671 0.999607,-0.21022 0.999607,0.22817 0,0.64911 1.003234,1.45521 1.811076,1.45521 1.50534,0 1.751255,-0.67121 1.845758,-5.03789 l 0.08496,-3.92568 -1.143292,-0.0823 c -0.953987,-0.0687 -1.157291,-0.18085 -1.22784,-0.67759 -0.08084,-0.56919 -0.0025,-0.59531 1.785938,-0.59531 h 1.870485 v 4.64335 c 0,5.13428 -0.176507,5.87179 -1.578839,6.59696 -0.838053,0.43338 -2.202669,0.49998 -3.051369,0.14894 z m 7.9375,-0.0531 c -0.896786,-0.4905 -1.190625,-1.06917 -1.190625,-2.34476 0,-1.94417 1.422428,-2.90596 4.297732,-2.90596 1.221964,0 1.258518,-0.0231 1.258518,-0.79375 0,-1.73291 -2.05471,-2.46726 -3.331345,-1.19063 -1.046892,1.04689 -2.159234,0.85834 -1.641379,-0.27823 0.627213,-1.37658 3.553314,-1.90174 5.154925,-0.92517 1.08325,0.66051 1.401911,1.79514 1.403823,4.99848 0.0013,2.249 0.04925,2.48466 0.530642,2.61055 0.782608,0.20466 0.691909,1.135 -0.110652,1.135 -1.007053,0 -1.496604,-0.2821 -1.779131,-1.0252 l -0.261747,-0.68845 -0.445589,0.56127 c -0.87982,1.10824 -2.687065,1.50217 -3.885172,0.84685 z m 3.466041,-1.65239 c 0.636138,-0.63614 0.899584,-1.13978 0.899584,-1.71979 0,-0.81862 -0.0028,-0.82021 -1.467235,-0.82021 -2.250739,0 -3.387285,1.37664 -2.354221,2.85155 0.635143,0.90679 1.831048,0.77927 2.921872,-0.31155 z m 5.484479,1.57222 c -0.878684,-0.38222 -1.547709,-1.29393 -1.274224,-1.73644 0.264235,-0.42754 0.941717,-0.29386 1.409418,0.2781 1.026224,1.255 4.011161,0.85545 4.011161,-0.53692 0,-0.94478 -0.337091,-1.19938 -2.453567,-1.85309 -2.468709,-0.76251 -3.409222,-2.14192 -2.55222,-3.74325 1.056184,-1.97349 6.328703,-1.40376 6.328703,0.68386 0,0.35394 -1.162619,0.10606 -1.779886,-0.37948 -1.577443,-1.24082 -4.450852,0.0815 -3.103947,1.42837 0.224309,0.22431 1.217325,0.64891 2.206702,0.94356 1.968943,0.58638 2.596605,1.09412 2.813121,2.27564 0.414291,2.26078 -2.894331,3.81888 -5.605261,2.63965 z m 17.955584,-0.0576 c -2.623351,-1.29282 -2.594067,-7.13288 0.04204,-8.3838 2.664973,-1.26461 5.126355,0.14448 5.617495,3.21589 l 0.17803,1.11333 h -3.208812 c -1.764847,0 -3.208151,0.0893 -3.207339,0.19844 0.01969,2.6486 2.633149,4.15882 4.233045,2.44612 0.69879,-0.74806 1.586306,-0.86981 1.586306,-0.21761 0,1.65903 -3.175712,2.64532 -5.240765,1.62763 z m 4.068869,-5.84052 c -0.5684,-2.41943 -3.697902,-2.51418 -4.369527,-0.13229 l -0.242466,0.8599 h 2.391466 2.391457 z m 26.887376,5.84052 c -2.62335,-1.29282 -2.59407,-7.13288 0.042,-8.3838 2.66497,-1.26461 5.12636,0.14448 5.6175,3.21589 l 0.17803,1.11333 h -3.20882 c -1.76485,0 -3.20815,0.0893 -3.20734,0.19844 0.0197,2.6486 2.63315,4.15882 4.23305,2.44612 0.69879,-0.74806 1.58631,-0.86981 1.58631,-0.21761 0,1.65903 -3.17572,2.64532 -5.24077,1.62763 z m 4.06887,-5.84052 c -0.5684,-2.41943 -3.6979,-2.51418 -4.36953,-0.13229 l -0.24247,0.8599 h 2.39147 2.39146 z m 13.89434,5.82043 c -2.59189,-1.32695 -2.60728,-7.04229 -0.0224,-8.33356 1.86699,-0.93267 4.21199,-0.39098 5.171,1.19449 0.65057,1.07555 0.72035,4.40773 0.11745,5.60825 -0.90625,1.80455 -3.34601,2.51378 -5.26601,1.53082 z m 3.32143,-1.22072 c 1.3755,-1.18315 1.15006,-5.54399 -0.32127,-6.21437 -1.63292,-0.74401 -2.89736,-0.0532 -3.31637,1.81182 -0.81853,3.64325 1.39952,6.3277 3.63764,4.40255 z m 10.33463,1.21294 c -0.37485,-0.4142 -0.44933,-1.0742 -0.44933,-3.9814 0,-3.3085 -0.0268,-3.48489 -0.52917,-3.48489 -0.35278,0 -0.52917,-0.17639 -0.52917,-0.52917 0,-0.34281 0.17639,-0.52917 0.50086,-0.52917 0.52429,0 0.82206,-0.48702 0.82206,-1.34455 0,-0.33114 0.18391,-0.50753 0.52917,-0.50753 0.42837,0 0.52916,0.17639 0.52916,0.92604 0,0.85255 0.063,0.92604 0.79375,0.92604 0.61736,0 0.79375,0.1176 0.79375,0.52917 0,0.41157 -0.17639,0.52917 -0.79375,0.52917 h -0.79375 v 3.1426 c 0,3.38513 0.2115,3.95702 1.33186,3.60143 0.47822,-0.15178 0.55022,-0.085 0.47572,0.44117 -0.1196,0.84473 -1.9933,1.04117 -2.68116,0.28109 z m 4.66473,0.0855 c -0.87869,-0.38222 -1.54771,-1.29393 -1.27423,-1.73644 0.26424,-0.42754 0.94172,-0.29386 1.40942,0.2781 1.02623,1.255 4.01116,0.85545 4.01116,-0.53692 0,-0.94478 -0.33709,-1.19938 -2.45356,-1.85309 -2.46871,-0.76251 -3.40923,-2.14192 -2.55222,-3.74325 1.05618,-1.97349 6.3287,-1.40376 6.3287,0.68386 0,0.35394 -1.16262,0.10606 -1.77989,-0.37948 -1.57744,-1.24082 -4.45085,0.0815 -3.10394,1.42837 0.2243,0.22431 1.21732,0.64891 2.2067,0.94356 1.96894,0.58638 2.5966,1.09412 2.81312,2.27564 0.41429,2.26078 -2.89433,3.81888 -5.60526,2.63965 z m -59.88281,-4.24451 v -4.36563 h 0.66145 c 0.54297,0 0.66146,0.12855 0.66146,0.71761 v 0.71761 l 0.73168,-0.87643 c 0.8701,-1.04223 1.98943,-1.09253 2.131,-0.0958 0.0711,0.50054 -0.0382,0.59532 -0.6866,0.59532 -1.46432,0 -1.76861,0.71594 -1.86693,4.39255 l -0.0877,3.28036 h -0.77217 -0.77217 z m 10.31875,-1.32292 v -5.68854 h 3.18349 c 3.52586,0 4.57447,0.27797 5.50333,1.45883 1.15639,1.47011 0.51974,4.07986 -1.16724,4.78472 l -0.91193,0.38103 1.59779,2.37625 1.59779,2.37625 h -0.91162 c -0.85695,0 -0.99618,-0.13483 -2.32193,-2.24852 l -1.41031,-2.24852 -1.78594,-4.4e-4 -1.78593,-4.3e-4 v 2.24896 2.24895 h -0.79375 -0.79375 z m 6.97577,-0.68066 c 0.88944,-0.69963 0.97711,-2.34667 0.16798,-3.1558 -0.4549,-0.45489 -0.88195,-0.52916 -3.04271,-0.52916 h -2.51354 v 2.11666 2.11667 h 2.34556 c 1.97232,0 2.45651,-0.0873 3.04271,-0.54837 z m 31.65339,2.00358 v -4.36563 h 0.66146 c 0.54297,0 0.66146,0.12855 0.66146,0.71761 v 0.71761 l 0.73168,-0.87643 c 0.87009,-1.04223 1.98943,-1.09253 2.13099,-0.0958 0.0711,0.50054 -0.0382,0.59532 -0.6866,0.59532 -1.46431,0 -1.7686,0.71594 -1.86692,4.39255 l -0.0877,3.28036 h -0.77218 -0.77217 z"
       id="path1" /></g></svg>
