<?xml version="1.0" encoding="UTF-8" standalone="no"?><!--
  - Project intellij-jasper-report-support
  -
  - Copyright 2023-2023 Alessandro 'kLeZ' Accardo
  - Previous copyright (c) 2017-2023 Chathura Buddhika
  -
  - Permission is hereby granted, free of charge, to any person obtaining a copy
  - of this software and associated documentation files (the "Software"), to deal
  - in the Software without restriction, including without limitation the rights
  - to use, copy, modify, merge, publish, distribute, sublicense, and/or sell
  - copies of the Software, and to permit persons to whom the Software is
  - furnished to do so, subject to the following conditions:
  -
  - The above copyright notice and this permission notice shall be included in all
  - copies or substantial portions of the Software.
  -
  - THE SOFTWARE IS PROVIDED "AS IS", WITHOUT WARRANTY OF ANY KIND, EXPRESS OR
  - IMPLIED, INCLUDING BUT NOT LIMITED TO THE WARRANTIES OF MERCHANTABILITY,
  - FITNESS FOR A PARTICULAR PURPOSE AND NONINFRINGEMENT. IN NO EVENT SHALL THE
  - AUTHORS OR COPYRIGHT HOLDERS BE LIABLE FOR ANY CLAIM, DAMAGES OR OTHER
  - LIABILITY, WHETHER IN AN ACTION OF CONTRACT, TORT OR OTHERWISE, ARISING FROM,
  - OUT OF OR IN CONNECTION WITH THE SOFTWARE OR THE USE OR OTHER DEALINGS IN THE
  - SOFTWARE.
  -
  -->

<!-- Created with Inkscape (http://www.inkscape.org/) -->
<svg width="210mm" height="297mm" viewBox="0 0 210 297" version="1.1" id="svg1" xml:space="preserve" xmlns="http://www.w3.org/2000/svg">&#10;	<defs
		id="defs1" />&#10;
	<g id="layer1"><path
     style="fill:#000000"
     d="m 102.29086,149.8549 v -3.09034 h 3.09034 3.09033 v 3.09034 3.09033 h -3.09033 -3.09034 z m 2.20134,2.62466 v -0.127 h 0.17199 c 0.2063,0 0.28886,-0.17763 0.21652,-0.46585 l -0.0531,-0.21148 h -0.25239 -0.25239 v 0.46567 0.46566 h 0.0847 c 0.0466,0 0.0847,-0.0572 0.0847,-0.127 z m 0.0327,-0.3333 c -0.0667,-0.17383 0.0272,-0.41165 0.13606,-0.3444 0.0469,0.029 0.0853,0.1244 0.0853,0.21204 0,0.20859 -0.15622,0.30202 -0.22133,0.13236 z m -1.38734,0.037 c 0,-0.0931 0.0355,-0.16933 0.079,-0.16933 0.0434,0 0.10315,0.0762 0.13271,0.16933 0.0296,0.0931 0.0893,0.16933 0.1327,0.16933 0.0996,0 0.0988,-0.0915 -0.002,-0.25116 l -0.0785,-0.12416 0.0902,-0.10867 0.0902,-0.10867 -0.1054,-0.127 c -0.058,-0.0699 -0.19599,-0.127 -0.3067,-0.127 h -0.2013 v 0.42333 0.42333 h 0.0847 c 0.0466,0 0.0847,-0.0762 0.0847,-0.16933 z m 0,-0.42333 v -0.18345 l 0.10583,0.0353 c 0.0582,0.0194 0.10584,0.0861 0.10584,0.14817 0,0.0621 -0.0476,0.12876 -0.10584,0.14816 l -0.10583,0.0353 z m 1.04913,0.52289 c 0.0237,-0.0384 -0.0369,-0.067 -0.1346,-0.0635 -0.0978,0.003 -0.19428,-0.0413 -0.21452,-0.0996 l -0.0368,-0.10583 h 0.21872 0.21873 v -0.1213 c 0,-0.0667 -0.078,-0.14606 -0.1734,-0.17633 l -0.1734,-0.055 -0.12293,0.10203 c -0.1493,0.1239 -0.15918,0.34985 -0.0213,0.48769 0.1164,0.11641 0.37565,0.13518 0.43953,0.0318 z m -0.32946,-0.43823 c 0.0288,-0.0466 0.0882,-0.0847 0.13199,-0.0847 0.0438,0 0.0797,0.0381 0.0797,0.0847 0,0.0466 -0.0594,0.0847 -0.13199,0.0847 h -0.132 z m 1.63406,0.4064 c 0.14139,-0.14138 0.12678,-0.36477 -0.0325,-0.49695 l -0.1341,-0.11129 -0.14107,0.0888 c -0.1817,0.11441 -0.2252,0.34163 -0.0954,0.49808 0.12407,0.1495 0.26728,0.15708 0.40302,0.0213 z m -0.28905,-0.1047 c -0.0667,-0.17383 0.0272,-0.41165 0.13606,-0.3444 0.0469,0.029 0.0853,0.1244 0.0853,0.21204 0,0.20859 -0.15622,0.30202 -0.22132,0.13236 z m 0.72932,-0.0504 v -0.25673 l 0.1905,-0.0766 0.1905,-0.0766 -0.27517,-0.005 -0.27516,-0.005 v 0.33867 c 0,0.18626 0.0381,0.33866 0.0847,0.33866 0.0466,0 0.0847,-0.11552 0.0847,-0.25672 z m 0.91017,0.19836 -0.14817,-0.0387 v -0.24779 -0.24779 l 0.14817,-0.007 0.14816,-0.007 -0.127,-0.0483 c -0.0699,-0.0266 -0.15211,-0.0869 -0.18281,-0.13404 l -0.0558,-0.0857 -0.14073,0.14074 c -0.0774,0.0774 -0.0999,0.14073 -0.05,0.14073 0.0499,0 0.0907,0.10795 0.0907,0.23989 0,0.28861 0.0567,0.3559 0.28927,0.34295 l 0.17639,-0.01 z m 0.67204,-0.0795 0.0529,-0.13783 -0.20372,-0.16571 -0.20371,-0.16571 0.19061,0.0417 0.19062,0.0416 -0.0475,-0.0768 c -0.0707,-0.11436 -0.25737,-0.0928 -0.36979,0.0426 l -0.0991,0.11937 0.19454,0.13702 0.19454,0.13701 -0.127,0.081 -0.127,0.081 0.15082,0.001 c 0.0829,7.1e-4 0.17463,-0.0607 0.20372,-0.13654 z m -2.00554,-1.1745 v -0.127 h 0.17199 c 0.2063,0 0.28886,-0.17763 0.21652,-0.46586 l -0.0531,-0.21147 h -0.25239 -0.25239 v 0.46566 0.46567 h 0.0847 c 0.0466,0 0.0847,-0.0572 0.0847,-0.127 z m 0.0327,-0.3333 c -0.0667,-0.17384 0.0272,-0.41165 0.13606,-0.3444 0.0469,0.029 0.0853,0.1244 0.0853,0.21203 0,0.20859 -0.15622,0.30202 -0.22133,0.13237 z m -1.74253,-0.2382 0.0258,-0.40217 -0.19514,0.007 c -0.10732,0.004 -0.14751,0.0259 -0.0893,0.0494 l 0.10583,0.0427 v 0.34149 0.34148 l -0.16945,-0.0443 -0.16945,-0.0443 0.0504,0.0816 c 0.0277,0.0449 0.13257,0.0699 0.23295,0.0556 l 0.18251,-0.026 z m 0.77852,0.23976 c 0,-0.11261 -0.0231,-0.26501 -0.0514,-0.33867 l -0.0514,-0.13392 -0.18144,0.01 -0.18144,0.01 0.14816,0.0387 c 0.20037,0.0524 0.18852,0.19564 -0.0162,0.19564 -0.19483,0 -0.29247,0.1293 -0.22682,0.30038 l 0.0472,0.12295 h 0.25666 0.25665 z m -0.42333,1.3e-4 c 0,-0.0737 0.0603,-0.13406 0.13406,-0.13406 0.14951,0 0.12347,0.18227 -0.0335,0.2346 -0.0553,0.0184 -0.10054,-0.0268 -0.10054,-0.10054 z m 0.98954,0.0668 0.0529,-0.13784 -0.20371,-0.1657 -0.20372,-0.16571 0.19062,0.0416 0.19061,0.0417 -0.0474,-0.0768 c -0.0707,-0.11436 -0.25738,-0.0928 -0.36979,0.0426 l -0.0991,0.11937 0.19453,0.13702 0.19454,0.13701 -0.127,0.081 -0.127,0.081 0.15082,0.001 c 0.083,7.2e-4 0.17463,-0.0607 0.20372,-0.13653 z m 1.41425,0.0681 c 0.0237,-0.0384 -0.0369,-0.0669 -0.1346,-0.0635 -0.0977,0.003 -0.19427,-0.0413 -0.21451,-0.0996 l -0.0368,-0.10584 h 0.21872 0.21872 v -0.12129 c 0,-0.0667 -0.078,-0.14606 -0.17339,-0.17633 l -0.1734,-0.055 -0.12294,0.10203 c -0.14929,0.1239 -0.15918,0.34985 -0.0213,0.48769 0.1164,0.11641 0.37565,0.13518 0.43952,0.0318 z m -0.32946,-0.43823 c 0.0288,-0.0466 0.0882,-0.0847 0.132,-0.0847 0.0438,0 0.0797,0.0381 0.0797,0.0847 0,0.0466 -0.0594,0.0847 -0.132,0.0847 h -0.13199 z m 0.71967,0.25127 v -0.25673 l 0.1905,-0.0766 0.1905,-0.0766 -0.27517,-0.005 -0.27516,-0.005 v 0.33866 c 0,0.18627 0.0381,0.33867 0.0847,0.33867 0.0466,0 0.0847,-0.11553 0.0847,-0.25673 z m -1.778,-1.26727 v -0.16933 h -1.143 -1.143 v 0.16933 0.16933 h 1.143 1.143 z m -1.35467,-0.635 v -0.127 h -0.16933 -0.16933 v -0.55033 -0.55034 h 0.16933 0.16933 v -0.127 -0.127 h -0.508 -0.508 v 0.127 0.127 h 0.16934 0.16933 v 0.55034 0.55033 h -0.16933 -0.16934 v 0.127 0.127 h 0.508 0.508 z m 1.13696,-0.006 0.13304,-0.13304 v -0.67129 -0.67129 h -0.33866 -0.33867 v 0.127 0.127 h 0.17337 0.17338 l -0.0252,0.52917 -0.0252,0.52917 -0.27516,-0.0125 -0.27517,-0.0125 v 0.11126 c 0,0.22785 0.59048,0.2848 0.79829,0.077 z"
     id="path2" /></g></svg>
